<?xml version="1.0" encoding="UTF-8"?>
<svg width="64" height="64" viewBox="0 0 64 64" xmlns="http://www.w3.org/2000/svg">
  <g fill="none" fill-rule="evenodd">
    <path d="M18 12h17l11 11v23c0 3.314-2.686 6-6 6H18c-3.314 0-6-2.686-6-6V18c0-3.314 2.686-6 6-6z" fill="#1F2C3D"/>
    <path d="M35 12v8a4 4 0 0 0 4 4h7z" fill="#5C6E86"/>
    <path d="M42 39c5.376-.902 9.81-3.885 13-9" stroke="#1F2C3D" stroke-width="4.6" stroke-linecap="round"/>
    <circle cx="56" cy="24" r="4.2" fill="#1F2C3D"/>
    <rect x="19" y="28" width="13" height="3.6" rx="1.8" fill="#F4F7FB"/>
    <rect x="19" y="35" width="18" height="3.6" rx="1.8" fill="#F4F7FB"/>
  </g>
</svg>
